# AST/ASF file generated using VICON BodyLanguage
# -----------------------------------------------
:version 1.10
:name VICON
:units
  mass 1.0
  length 0.45
  angle deg
:documentation
   .ast/.asf automatically generated from VICON data using
   VICON BodyBuilder and BodyLanguage model FoxedUp or BRILLIANT.MOD
:root
   order TX TY TZ RX RY RZ
   axis XYZ
   position 0 0 0  
   orientation 0 0 0 
:bonedata
  begin
     id 1 
     name lhipjoint
     direction 0.610259 -0.730986 0.305356 
     length 2.50941 
     axis 0 0 0  XYZ
  end
  begin
     id 2 
     name lfemur
     direction 0.34202 -0.939693 0  
     length 7.48822  
     axis 0 0 20  XYZ
    dof rx ry rz
    limits (-160.0 20.0)
           (-70.0 70.0)
           (-60.0 70.0)
  end
  begin
     id 3 
     name ltibia
     direction 0.34202 -0.939693 0   
     length 7.60141   
     axis 0 0 20   XYZ
    dof rx
    limits (-10.0 170.0)
  end
  begin
     id 4 
     name lfoot
     direction 0.0673488 -0.185039 0.980421   
     length 2.04049   
     axis -90 7.62852e-016 20   XYZ
    dof rx rz
    limits (-45.0 90.0)
           (-70.0 20.0)
  end
  begin
     id 5 
     name ltoes
     direction 1.5356e-011 -4.21729e-011 1   
     length 1.02897   
     axis -90 7.62852e-016 20   XYZ
    dof rx
    limits (-90.0 20.0)
  end
  begin
     id 6 
     name rhipjoint
     direction -0.57612 -0.754205 0.315056   
     length 2.43216  
     axis 0 0 0  XYZ 
  end
  begin
     id 7 
     name rfemur
     direction -0.34202 -0.939693 0   
     length 7.42799   
     axis 0 0 -20   XYZ
    dof rx ry rz
    limits (-160.0 20.0)
           (-70.0 70.0)
           (-70.0 60.0)
  end
  begin
     id 8 
     name rtibia
     direction -0.34202 -0.939693 0   
     length 7.69484   
     axis 0 0 -20   XYZ
    dof rx
    limits (-10.0 170.0)
 end
 begin
     id 9 
     name rfoot
     direction -0.111837 -0.30727 0.945028   
     length 2.15769  
     axis -90 -7.62852e-016 -20   XYZ
    dof rx rz
    limits (-45.0 90.0)
           (-20.0 70.0)
  end
  begin
     id 10 
     name rtoes
     direction -1.53539e-011 -4.21878e-011 1   
     length 1.07391   
     axis -90 -7.62852e-016 -20   XYZ
    dof rx
    limits (-90.0 20.0)
  end
  begin
     id 11 
     name lowerback
     direction 0.00552624 0.990109 -0.140195   
     length 2.12403   
     axis 0 0 0   XYZ
    dof rx ry rz
    limits (-20.0 45.0)
           (-30.0 30.0)
           (-30.0 30.0)
  end
  begin
     id 12 
     name upperback
     direction 0.00361898 0.999976 -0.00584723   
     length 2.13232   
     axis 0 0 0   XYZ
    dof rx ry rz
    limits (-20.0 45.0)
           (-30.0 30.0)
           (-30.0 30.0)
  end
  begin
     id 13 
     name thorax
     direction -0.000331275 0.998253 0.0590847   
     length 2.17688   
     axis 0 0 0   XYZ
    dof rx ry rz
    limits (-20.0 45.0)
           (-30.0 30.0)
           (-30.0 30.0)
  end
  begin
     id 14 
     name lowerneck
     direction -0.0561561 0.979832 0.19177   
     length 1.64159   
     axis 0 0 0   XYZ
    dof rx ry rz
    limits (-20.0 45.0)
           (-30.0 30.0)
           (-30.0 30.0)
  end
  begin
     id 15 
     name upperneck
     direction 0.0827153 0.979385 -0.184293   
     length 1.68939   
     axis 0 0 0   XYZ
    dof rx ry rz
    limits (-20.0 45.0)
           (-30.0 30.0)
           (-30.0 30.0)
  end
  begin
     id 16
     name head
     direction 0.0278583 0.995936 -0.0856488  
     length 1.70207  
     axis 0 0 0   XYZ
    dof rx ry rz
    limits (-20.0 45.0)
           (-30.0 30.0)
           (-30.0 30.0)
  end
  begin
     id 17 
     name lclavicle
     direction 0.950993 0.301131 -0.0702275  
     length 3.41652  
     axis 0 0 0   XYZ
    dof ry rz
    limits (-20.0 10.0)
           (0.0 20.0)
  end
  begin
     id 18 
     name lhumerus
     direction 1 -4.48981e-011 -3.9662e-029   
     length 5.32955   
     axis 180 -30 -90   XYZ
    dof rx ry rz
    limits (-60.0 90.0)
           (-90.0 90.0)
           (-90.0 90.0)
  end
  begin
     id 19
     name lradius
     direction 1 -4.48925e-011 -9.0549e-027   
     length 3.69232   
     axis 180 -30 -90   XYZ
    dof rx
    limits (-10.0 170.0)
  end
  begin
     id 20
     name lwrist
     direction 1 -4.49007e-011 -1.49005e-026   
     length 1.84616   
     axis 9.0955e-015 90 90   XYZ
    dof ry
    limits (-180.0 0.0)
 end
  begin
     id 21 
     name lhand
     direction 1 -4.49016e-011 -2.98023e-026   
     length 0.536598   
     axis 1.90115e-014 90 90   XYZ
    dof rx rz
    limits (-90.0 90.0)
           (-45.0 45.0)
  end
  begin
     id 22 
     name lfingers
     direction 1 -4.48924e-011 -5.9578e-026   
     length 0.432619   
     axis 3.80223e-014 90 90   XYZ
    dof rx
    limits (0.0 90.0)
  end
  begin
     id 23
     name lthumb
     direction 0.707107 -6.34947e-011 0.707107   
     length 0.621157   
     axis -90 45 -3.84942e-014   XYZ
    dof rx rz
    limits (-45.0 45.0)
           (-45.0 45.0)
  end
  begin
     id 24 
     name rclavicle
     direction -0.955495 0.276497 -0.102848   
     length 3.36357  
     axis 0 0 0   XYZ 
    dof ry rz
    limits (-10.0 20.0)
           (-20.0 0.0)
  end
  begin
     id 25 
     name rhumerus
     direction -1 -4.48961e-011 3.30983e-027  
     length 5.23431   
     axis 180 30 90   XYZ
    dof rx ry rz
    limits (-90.0 60.0)
           (-90.0 90.0)
           (-90.0 90.0)
  end
  begin
     id 26 
     name rradius
     direction -1 -4.48965e-011 -6.63263e-027   
     length 3.55301   
     axis 180 30 90   XYZ
    dof rx
    limits (-10.0 170.0)
  end
  begin
     id 27 
     name rwrist
     direction -1 -4.48942e-011 -1.48958e-026   
     length 1.77651   
     axis 9.0955e-015 -90 -90   XYZ
    dof ry
    limits (-180.0 0.0)
  end
  begin
     id 28
     name rhand
     direction -1 -4.48977e-011 -2.97966e-026   
     length 0.772522   
     axis 1.90115e-014 -90 -90   XYZ
    dof rx rz
    limits (-90.0 90.0)
           (-45.0 45.0)
  end
  begin
     id 29
     name rfingers
     direction -1 -4.49135e-011 -5.96389e-026   
     length 0.622827   
     axis 3.80223e-014 -90 -90   XYZ
    dof rx
    limits (0.0 90.0)
  end
  begin
     id 30
     name rthumb
     direction -0.707107 -6.34969e-011 0.707107   
     length 0.894259   
     axis -90 -45 3.84942e-014   XYZ
    dof rx rz
    limits (-45.0 45.0)
           (-45.0 45.0)
  end
:hierarchy
  begin
    root lhipjoint rhipjoint lowerback
    lhipjoint lfemur
    lfemur ltibia
    ltibia lfoot
    lfoot ltoes
    rhipjoint rfemur
    rfemur rtibia
    rtibia rfoot
    rfoot rtoes
    lowerback upperback
    upperback thorax
    thorax lowerneck lclavicle rclavicle
    lowerneck upperneck
    upperneck head
    lclavicle lhumerus
    lhumerus lradius
    lradius lwrist
    lwrist lhand lthumb
    lhand lfingers
    rclavicle rhumerus
    rhumerus rradius
    rradius rwrist
    rwrist rhand rthumb
    rhand rfingers
  end

#!OML:ASF F:\VICON\USERDATA\INSTALL\rory3\rory3.ASF
:FULLY-SPECIFIED
:DEGREES
65
root 11.6521 17.7183 -10.0662 0.23965 -5.67846 -2.21381
lowerback 10.4681 2.54793 3.35029
upperback 0.414204 3.8312 0.849693
thorax -5.27255 1.8138 -1.5566
lowerneck -19.7419 -8.30336 -13.2905
upperneck 27.5542 -11.2011 11.5035
head 14.2106 -4.80644 4.78381
rclavicle -1.09829e-014 3.18055e-015
rhumerus -26.1084 -8.40443 -84.7282
rradius 36.2319
rwrist 4.13971
rhand -15.2826 7.71363
rfingers 7.12502
rthumb 10.8922 -21.9839
lclavicle -1.09829e-014 3.18055e-015
lhumerus -40.653 11.4097 79.3619
lradius 26.2277
lwrist -9.44302
lhand -19.5889 26.4059
lfingers 7.12502
lthumb 6.7367 56.2788
rfemur 11.8746 3.76601 29.9183
rtibia 20.8857
rfoot -12.7826 -1.16924
rtoes 1.06337
lfemur -20.8288 -3.36808 -14.3945
ltibia 13.184
lfoot 1.02099 -6.84083
ltoes -13.2161
66
root 11.6413 17.7376 -9.91082 0.138779 -5.97613 -1.81475
lowerback 10.4746 2.62577 2.84855
upperback 0.431709 3.86946 0.75364
thorax -5.28194 1.84389 -1.38226
lowerneck -19.7791 -8.32163 -13.3211
upperneck 27.6232 -11.2429 11.5648
head 14.2629 -4.81884 4.80812
rclavicle -1.4064e-014 1.98785e-015
rhumerus -26.2572 -8.81195 -84.6854
rradius 36.3808
rwrist 4.03764
rhand -14.9837 8.27909
rfingers 7.12502
rthumb 11.1804 -21.403
lclavicle -1.4064e-014 1.98785e-015
lhumerus -40.5216 11.4293 79.3617
lradius 26.0807
lwrist -9.49149
lhand -19.5895 26.6862
lfingers 7.12502
lthumb 6.73612 56.559
rfemur 11.7816 3.95059 29.5856
rtibia 22.1345
rfoot -11.8588 -1.31892
rtoes 1.40716
lfemur -20.3895 -3.15842 -14.855
ltibia 13.3048
lfoot 2.30236 -7.86607
ltoes -11.6311
67
root 11.6278 17.7513 -9.75421 0.094659 -6.26751 -1.32973
lowerback 10.433 2.69887 2.24468
upperback 0.368802 3.88899 0.638438
thorax -5.35559 1.8655 -1.16823
lowerneck -19.5802 -8.34149 -13.5327
upperneck 27.6681 -11.276 11.6951
head 14.2716 -4.84731 4.89804
rclavicle 3.71727e-014 1.15295e-014
rhumerus -26.5574 -9.0703 -84.6695
rradius 36.4442
rwrist 3.92002
rhand -14.8072 8.20583
rfingers 7.12502
rthumb 11.3507 -21.467
lclavicle 3.71727e-014 1.15295e-014
lhumerus -40.503 11.5035 79.2913
lradius 26.0228
lwrist -9.92351
lhand -19.6452 26.6143
lfingers 7.12502
lthumb 6.6823 56.4889
rfemur 11.4937 4.21632 29.1855
rtibia 23.6798
rfoot -11.0125 -1.58641
rtoes 1.86747
lfemur -19.9114 -2.93786 -15.3875
ltibia 13.3254
lfoot 3.30482 -8.55564
ltoes -9.54735
68
root 11.6123 17.7539 -9.60589 -0.020895 -6.2766 -0.890258
lowerback 10.5581 2.67701 1.72818
upperback 0.290238 3.79508 0.496877
thorax -5.53484 1.82738 -1.02342
lowerneck -19.1991 -8.41838 -13.6859
upperneck 27.5396 -11.3905 11.739
head 14.1676 -4.92256 4.92092
rclavicle -3.926e-015 2.18663e-015
rhumerus -26.8718 -9.37891 -84.7002
rradius 36.3553
rwrist 4.01326
rhand -14.8966 8.05181
rfingers 7.12502
rthumb 11.2645 -21.6257
lclavicle -3.926e-015 2.18663e-015
lhumerus -40.5548 11.686 79.062
lradius 26.0566
lwrist -10.6296
lhand -19.2652 26.678
lfingers 7.12502
lthumb 7.04912 56.5407
rfemur 11.1143 4.15814 28.8462
rtibia 25.4349
rfoot -10.3306 -1.89527
rtoes 1.69994
lfemur -19.3395 -2.44073 -16.0062
ltibia 13.3638
lfoot 4.00314 -9.34608
ltoes -9.69168
69
root 11.5948 17.7612 -9.46358 -0.151472 -6.04536 -0.414244
lowerback 10.7011 2.56967 1.18513
upperback 0.250551 3.58048 0.339052
thorax -5.68525 1.73191 -0.861524
lowerneck -18.8116 -8.44898 -13.7139
upperneck 27.3052 -11.4842 11.8308
head 14.0081 -4.97038 4.9433
rclavicle 1.23246e-014 5.96354e-015
rhumerus -27.0839 -9.69307 -84.7809
rradius 36.1713
rwrist 4.21385
rhand -15.1478 7.87274
rfingers 7.12502
rthumb 11.0222 -21.8179
lclavicle 1.23246e-014 5.96354e-015
lhumerus -40.5429 12.0007 78.7684
lradius 26.0291
lwrist -11.0973
lhand -18.7093 27.0168
lfingers 7.12502
lthumb 7.58573 56.8608
rfemur 10.5939 3.7456 28.4555
rtibia 27.3588
rfoot -9.39669 -2.28361
rtoes 1.41473
lfemur -18.8326 -1.72795 -16.7697
ltibia 13.4756
lfoot 4.49894 -9.94937
ltoes -12.1026
70
root 11.5828 17.7783 -9.30652 -0.277892 -6.02039 0.115549
lowerback 10.5715 2.54203 0.640761
upperback 0.340491 3.46638 0.193405
thorax -5.54312 1.69037 -0.682569
lowerneck -18.715 -8.47663 -13.8033
upperneck 27.1903 -11.5577 12.015
head 13.9723 -4.99322 5.01793
rclavicle 5.98839e-015 9.34288e-015
rhumerus -27.191 -10.0862 -84.7861
rradius 35.9953
rwrist 4.39149
rhand -15.2086 7.83803
rfingers 7.12502
rthumb 10.9635 -21.8557
lclavicle 5.98839e-015 9.34288e-015
lhumerus -40.1493 12.2879 78.6324
lradius 25.5626
lwrist -11.2932
lhand -18.9483 26.9841
lfingers 7.12502
lthumb 7.35507 56.8363
rfemur 10.0081 3.34324 27.9038
rtibia 29.4196
rfoot -8.17243 -2.62858
rtoes 1.20764
lfemur -18.2292 -1.27716 -17.5137
ltibia 13.58
lfoot 4.4021 -9.88509
ltoes -14.4841
71
root 11.5765 17.7984 -9.14396 -0.404884 -6.16155 0.502384
lowerback 10.4508 2.5542 0.314396
upperback 0.403514 3.43424 0.0533768
thorax -5.42009 1.68252 -0.633201
lowerneck -18.7561 -8.4755 -13.8088
upperneck 27.261 -11.5953 12.1243
head 14.0276 -4.99539 5.05915
rclavicle 2.6165e-014 1.19271e-015
rhumerus -27.4219 -10.558 -84.7792
rradius 35.7976
rwrist 4.54301
rhand -14.7596 7.25929
rfingers 7.12502
rthumb 11.3966 -22.411
lclavicle 2.6165e-014 1.19271e-015
lhumerus -39.794 12.4871 78.4914
lradius 25.0869
lwrist -11.4261
lhand -19.4849 26.9434
lfingers 7.12502
lthumb 6.8371 56.813
rfemur 9.37829 2.968 27.4031
rtibia 31.54
rfoot -6.71974 -2.77147
rtoes 1.8544
lfemur -17.5466 -1.02082 -18.0389
ltibia 13.6795
lfoot 3.98937 -9.98576
ltoes -14.9804
72
root 11.5678 17.8184 -8.98613 -0.56626 -6.34614 0.870735
lowerback 10.5289 2.56872 -0.0363698
upperback 0.344161 3.40471 -0.073392
thorax -5.53923 1.67432 -0.570565
lowerneck -18.6147 -8.41544 -13.7305
upperneck 27.4103 -11.5558 12.0773
head 14.0447 -4.98168 5.04369
rclavicle -1.99779e-014 -1.98785e-015
rhumerus -27.7691 -11.0175 -84.7703
rradius 35.3509
rwrist 4.64382
rhand -14.7342 6.81305
rfingers 7.12502
rthumb 11.4211 -22.8559
lclavicle -1.99779e-014 -1.98785e-015
lhumerus -39.9562 12.6396 78.2842
lradius 25.2446
lwrist -11.5804
lhand -19.3545 26.969
lfingers 7.12502
lthumb 6.96297 56.8345
rfemur 8.67556 2.55559 26.8797
rtibia 33.7094
rfoot -4.91559 -2.81133
rtoes 3.77795
lfemur -16.7587 -0.956013 -18.4772
ltibia 13.6518
lfoot 3.81904 -10.4479
ltoes -13.1695
73
root 11.5595 17.8415 -8.82578 -0.758304 -6.50378 1.10304
lowerback 10.6082 2.55439 -0.238593
upperback 0.295802 3.35666 -0.150209
thorax -5.64188 1.65424 -0.53577
lowerneck -18.3541 -8.36065 -13.6911
upperneck 27.466 -11.5251 12.058
head 14.0024 -4.97733 5.04319
rclavicle -2.97059e-014 -5.36719e-015
rhumerus -28.1679 -11.2516 -84.7955
rradius 35.0023
rwrist 4.47171
rhand -15.9492 8.37081
rfingers 7.12502
rthumb 10.2491 -21.3595
lclavicle -2.97059e-014 -5.36719e-015
lhumerus -40.1319 12.6662 78.1551
lradius 25.3959
lwrist -11.6155
lhand -19.3284 27.0763
lfingers 7.12502
lthumb 6.98811 56.941
rfemur 7.93884 1.97356 26.445
rtibia 35.8866
rfoot -2.74749 -2.8043
rtoes 5.33
lfemur -15.9118 -0.880094 -18.7766
ltibia 13.5936
lfoot 3.65801 -10.9471
ltoes -11.7098
74
root 11.5548 17.8705 -8.66685 -0.946722 -6.56475 1.32978
lowerback 10.5753 2.48104 -0.34558
upperback 0.380103 3.24116 -0.23631
thorax -5.53603 1.5997 -0.543871
lowerneck -18.3073 -8.33872 -13.6107
upperneck 27.445 -11.4989 11.9824
head 13.9664 -4.96914 5.00314
rclavicle 4.60932e-015 4.37326e-015
rhumerus -28.3073 -11.7366 -84.7086
rradius 34.8975
rwrist 5.72121
rhand -15.3746 8.40557
rfingers 7.12502
rthumb 10.8034 -21.2966
lclavicle 4.60932e-015 4.37326e-015
lhumerus -39.8415 12.7407 78.0913
lradius 25.1602
lwrist -11.5571
lhand -19.4108 27.0854
lfingers 7.12502
lthumb 6.90864 56.9527
rfemur 7.09083 1.20778 25.9653
rtibia 38.1042
rfoot -0.334008 -2.84044
rtoes 6.70848
lfemur -15.0906 -0.992366 -19.0763
ltibia 13.5103
lfoot 3.34187 -10.8775
ltoes -11.3104
75
root 11.5548 17.897 -8.50791 -1.1863 -6.59924 1.55769
lowerback 10.5636 2.36645 -0.344247
upperback 0.508312 3.08214 -0.355988
thorax -5.38835 1.52066 -0.640881
lowerneck -18.4621 -8.31489 -13.4638
upperneck 27.5321 -11.4546 11.8358
head 14.0066 -4.94677 4.92585
rclavicle -6.44062e-014 8.15017e-015
rhumerus -28.3769 -12.0586 -84.7621
rradius 34.3363
rwrist 5.38195
rhand -14.5337 7.3342
rfingers 7.12502
rthumb 11.6145 -22.3239
lclavicle -6.44062e-014 8.15017e-015
lhumerus -39.6056 12.9894 77.9318
lradius 25.1364
lwrist -11.6023
lhand -19.2264 27.1478
lfingers 7.12502
lthumb 7.08656 57.0092
rfemur 6.22099 0.294375 25.4057
rtibia 40.3579
rfoot 2.21173 -2.82108
rtoes 8.36371
lfemur -14.1866 -0.945862 -19.4421
ltibia 13.3349
lfoot 2.9368 -10.852
ltoes -11.9897
76
root 11.5542 17.9157 -8.3495 -1.42969 -6.85696 1.82125
lowerback 10.5961 2.31618 -0.431653
upperback 0.543529 2.99901 -0.454416
thorax -5.36914 1.48072 -0.682477
lowerneck -18.4963 -8.22323 -13.3747
upperneck 27.7391 -11.3267 11.7066
head 14.0646 -4.89707 4.89042
rclavicle 1.50579e-014 -5.96354e-016
rhumerus -28.7401 -12.1561 -84.7894
rradius 34.0865
rwrist 5.23953
rhand -14.573 7.29486
rfingers 7.12502
rthumb 11.5765 -22.3654
lclavicle 1.50579e-014 -5.96354e-016
lhumerus -39.6826 13.108 77.8313
lradius 25.3595
lwrist -11.4544
lhand -19.2964 27.2524
lfingers 7.12502
lthumb 7.019 57.116
rfemur 5.26654 -0.470246 24.7673
rtibia 42.6677
rfoot 4.71852 -2.80235
rtoes 11.65
lfemur -13.135 -0.637146 -19.8381
ltibia 12.9285
lfoot 2.72291 -11.0815
ltoes -11.3403
77
root 11.5511 17.9318 -8.1925 -1.6784 -7.36698 2.15318
lowerback 10.6003 2.37765 -0.655733
upperback 0.598513 3.04846 -0.548593
thorax -5.32007 1.50946 -0.661158
lowerneck -18.3853 -8.16086 -13.4228
upperneck 27.765 -11.249 11.741
head 14.0451 -4.86941 4.93234
rclavicle -1.2598e-014 -1.78906e-015
rhumerus -29.0786 -12.2844 -84.7678
rradius 33.8938
rwrist 5.29009
rhand -15.558 9.36846
rfingers 7.12502
rthumb 10.6266 -20.3428
lclavicle -1.2598e-014 -1.78906e-015
lhumerus -39.6388 12.8745 78.0083
lradius 25.4937
lwrist -10.6135
lhand -19.6385 27.5746
lfingers 7.12502
lthumb 6.68884 57.449
rfemur 4.22398 -1.06976 24.0279
rtibia 45.0354
rfoot 6.89467 -2.61265
rtoes 14.5016
lfemur -11.9892 -0.4346 -20.2565
ltibia 12.4047
lfoot 2.61817 -11.0279
ltoes -10.5008
78
root 11.5471 17.954 -8.03565 -1.92968 -7.81431 2.5664
lowerback 10.5934 2.42906 -0.948565
upperback 0.693501 3.07569 -0.664429
thorax -5.22557 1.5285 -0.618824
lowerneck -18.4791 -8.14799 -13.5057
upperneck 27.8457 -11.2274 11.8184
head 14.1091 -4.85646 4.9849
rclavicle -2.0773e-014 3.97569e-016
rhumerus -29.299 -12.3127 -84.7668
rradius 33.7716
rwrist 5.36883
rhand -15.0825 8.80242
rfingers 7.12502
rthumb 11.0852 -20.8848
lclavicle -2.0773e-014 3.97569e-016
lhumerus -39.3725 12.5167 78.2966
lradius 25.3716
lwrist -9.59563
lhand -20.1223 27.1826
lfingers 7.12502
lthumb 6.22178 57.0713
rfemur 3.09579 -1.68561 23.2485
rtibia 47.4395
rfoot 8.87187 -2.48804
rtoes 16.8574
lfemur -10.823 -0.297065 -20.7627
ltibia 11.7817
lfoot 2.59874 -10.7983
ltoes -9.87124
